<?xml version="1.0" encoding="UTF-8"?>
<svg id="Layer_2" data-name="Layer 2" xmlns="http://www.w3.org/2000/svg" viewBox="0 0 595.81 341.76">
  <defs>
    <style>
      .cls-1 {
        fill: #ed1c24;
      }

      .cls-2 {
        fill: #7a0d00;
      }
    </style>
  </defs>
  <g id="Layer_1-2" data-name="Layer 1">
    <g>
      <g>
        <path class="cls-2" d="M173.46,134.54v-1.36l1.91-.54c1.72-.45,2.93-1.22,3.61-2.31s1.07-2.54,1.16-4.35v-42.59c0-1.99-.32-3.47-.95-4.42-.64-.95-1.86-1.61-3.67-1.97l-2.04-.54v-1.36l23.27-7.89,1.36,1.36,1.09,9.25c2.99-2.99,6.42-5.53,10.27-7.62,3.85-2.09,7.87-3.13,12.04-3.13s7.85,.88,10.48,2.65c2.63,1.77,4.63,4.51,5.99,8.23,3.54-3.35,7.37-6.01,11.5-7.96,4.13-1.95,8.14-2.93,12.04-2.93,6.44,0,11.18,1.54,14.22,4.63,3.04,3.09,4.56,7.94,4.56,14.56v39.87c0,3.54,1.63,5.76,4.9,6.67l1.5,.41v1.36h-31.43v-1.36l1.36-.41c1.72-.54,2.93-1.36,3.61-2.45s1.02-2.54,1.02-4.35v-41.64c0-3.81-.68-6.42-2.04-7.82s-3.54-2.11-6.53-2.11c-2.36,0-4.65,.52-6.87,1.56-2.22,1.04-4.56,2.61-7.01,4.69,.45,1.45,.75,3.04,.88,4.76s.2,3.54,.2,5.44v35.24c.09,3.54,1.72,5.76,4.9,6.67l1.22,.41v1.36h-31.57v-1.36l1.91-.54c1.72-.54,2.93-1.34,3.61-2.38,.68-1.04,1.02-2.47,1.02-4.29v-41.5c0-3.63-.66-6.21-1.97-7.76-1.32-1.54-3.56-2.31-6.74-2.31-2.09,0-4.17,.52-6.26,1.56-2.09,1.04-4.27,2.56-6.53,4.56v45.58c0,3.54,1.59,5.76,4.76,6.67l1.23,.41v1.36h-31.98Z"/>
        <path class="cls-2" d="M311.02,136.58c-5.26,0-9.68-1.5-13.27-4.49-3.58-2.99-5.37-7.3-5.37-12.93,0-4.26,2.18-8.18,6.53-11.77,4.35-3.58,11.2-6.28,20.55-8.1,1.45-.27,3.08-.57,4.9-.88,1.81-.32,3.72-.66,5.71-1.02v-10.75c0-6.17-.75-10.5-2.25-12.99s-3.83-3.74-7.01-3.74c-2.18,0-3.9,.7-5.17,2.11-1.27,1.41-2.09,3.83-2.45,7.28l-.27,1.5c-.18,3.9-1.14,6.76-2.86,8.57-1.72,1.82-3.86,2.72-6.4,2.72-2.36,0-4.31-.73-5.85-2.18-1.54-1.45-2.31-3.4-2.31-5.85,0-3.72,1.29-6.85,3.88-9.39,2.59-2.54,6.01-4.44,10.27-5.71,4.26-1.27,8.89-1.91,13.88-1.91,8.07,0,14.31,1.97,18.71,5.92,4.4,3.95,6.6,10.37,6.6,19.25v30.07c0,4.08,1.9,6.12,5.71,6.12h2.99l1.22,1.09c-1.72,2.18-3.61,3.86-5.65,5.04-2.04,1.18-4.92,1.77-8.64,1.77-3.99,0-7.14-.93-9.46-2.79-2.31-1.86-3.83-4.33-4.56-7.42-2.72,2.9-5.51,5.37-8.37,7.42-2.86,2.04-6.55,3.06-11.09,3.06Zm8.3-8.3c1.81,0,3.51-.43,5.1-1.29,1.59-.86,3.47-2.2,5.65-4.01v-22.86c-.91,.18-1.82,.36-2.72,.54-.91,.18-1.95,.36-3.13,.54-4.17,1.09-7.51,2.93-10,5.51-2.5,2.58-3.74,6.06-3.74,10.41,0,3.72,.86,6.51,2.58,8.37,1.72,1.86,3.81,2.79,6.26,2.79Z"/>
        <path class="cls-2" d="M385.18,136.58c-4.45,0-8.44-.52-11.97-1.56-3.54-1.04-6.8-2.33-9.8-3.88l.14-16.19h1.36l4.63,8.17c1.99,3.63,4.19,6.33,6.6,8.1,2.4,1.77,5.46,2.65,9.19,2.65,4.35,0,7.87-.97,10.55-2.93,2.67-1.95,4.01-4.56,4.01-7.82,0-2.99-.95-5.44-2.86-7.35s-5.44-3.63-10.61-5.17l-5.71-1.77c-5.53-1.63-9.89-4.17-13.06-7.62-3.18-3.45-4.76-7.66-4.76-12.66,0-5.99,2.36-11.07,7.08-15.24,4.72-4.17,11.47-6.26,20.27-6.26,3.54,0,6.87,.39,10,1.16,3.13,.77,6.14,1.93,9.05,3.47l-.82,14.7h-1.36l-4.76-8.44c-1.72-2.99-3.43-5.1-5.1-6.33-1.68-1.22-4.2-1.84-7.55-1.84-3.08,0-5.99,.86-8.71,2.58-2.72,1.72-4.08,4.17-4.08,7.35s1.16,5.53,3.47,7.35c2.31,1.82,5.74,3.49,10.27,5.04l6.12,1.77c6.53,2,11.2,4.74,14.02,8.23,2.81,3.49,4.22,7.69,4.22,12.59,0,6.62-2.61,11.93-7.82,15.92-5.22,3.99-12.54,5.99-21.98,5.99Z"/>
        <path class="cls-2" d="M440.02,136.58c-5.26,0-9.68-1.5-13.27-4.49-3.58-2.99-5.37-7.3-5.37-12.93,0-4.26,2.18-8.18,6.53-11.77,4.35-3.58,11.2-6.28,20.55-8.1,1.45-.27,3.08-.57,4.9-.88,1.81-.32,3.72-.66,5.71-1.02v-10.75c0-6.17-.75-10.5-2.25-12.99s-3.83-3.74-7.01-3.74c-2.18,0-3.9,.7-5.17,2.11-1.27,1.41-2.09,3.83-2.45,7.28l-.27,1.5c-.18,3.9-1.14,6.76-2.86,8.57-1.72,1.82-3.86,2.72-6.4,2.72-2.36,0-4.31-.73-5.85-2.18-1.54-1.45-2.31-3.4-2.31-5.85,0-3.72,1.29-6.85,3.88-9.39,2.59-2.54,6.01-4.44,10.27-5.71,4.26-1.27,8.89-1.91,13.88-1.91,8.07,0,14.31,1.97,18.71,5.92,4.4,3.95,6.6,10.37,6.6,19.25v30.07c0,4.08,1.9,6.12,5.71,6.12h2.99l1.22,1.09c-1.72,2.18-3.61,3.86-5.65,5.04-2.04,1.18-4.92,1.77-8.64,1.77-3.99,0-7.14-.93-9.46-2.79-2.31-1.86-3.83-4.33-4.56-7.42-2.72,2.9-5.51,5.37-8.37,7.42-2.86,2.04-6.55,3.06-11.09,3.06Zm8.3-8.3c1.81,0,3.51-.43,5.1-1.29,1.59-.86,3.47-2.2,5.65-4.01v-22.86c-.91,.18-1.82,.36-2.72,.54-.91,.18-1.95,.36-3.13,.54-4.17,1.09-7.51,2.93-10,5.51-2.5,2.58-3.74,6.06-3.74,10.41,0,3.72,.86,6.51,2.58,8.37,1.72,1.86,3.81,2.79,6.26,2.79Z"/>
        <path class="cls-2" d="M491.04,134.54v-1.36l1.63-.54c3.27-1.09,4.9-3.35,4.9-6.8V53.03c0-1.81-.36-3.2-1.09-4.15-.73-.95-2-1.65-3.81-2.11l-1.77-.41v-1.36l24.9-5.85,1.63,1.22-.54,19.05v46.54c0,3.36,.02,6.69,.07,10,.05,3.31,.07,6.6,.07,9.86,0,1.82,.36,3.29,1.09,4.42,.72,1.14,1.95,1.97,3.67,2.52l1.77,.41v1.36h-32.52Z"/>
        <path class="cls-2" d="M548.05,136.58c-5.26,0-9.68-1.5-13.27-4.49-3.58-2.99-5.37-7.3-5.37-12.93,0-4.26,2.18-8.18,6.53-11.77,4.35-3.58,11.2-6.28,20.55-8.1,1.45-.27,3.08-.57,4.9-.88,1.81-.32,3.72-.66,5.71-1.02v-10.75c0-6.17-.75-10.5-2.25-12.99s-3.83-3.74-7.01-3.74c-2.18,0-3.9,.7-5.17,2.11-1.27,1.41-2.09,3.83-2.45,7.28l-.27,1.5c-.18,3.9-1.14,6.76-2.86,8.57-1.72,1.82-3.86,2.72-6.4,2.72-2.36,0-4.31-.73-5.85-2.18-1.54-1.45-2.31-3.4-2.31-5.85,0-3.72,1.29-6.85,3.88-9.39,2.59-2.54,6.01-4.44,10.27-5.71,4.26-1.27,8.89-1.91,13.88-1.91,8.07,0,14.31,1.97,18.71,5.92,4.4,3.95,6.6,10.37,6.6,19.25v30.07c0,4.08,1.9,6.12,5.71,6.12h2.99l1.22,1.09c-1.72,2.18-3.61,3.86-5.65,5.04-2.04,1.18-4.92,1.77-8.64,1.77-3.99,0-7.14-.93-9.46-2.79-2.31-1.86-3.83-4.33-4.56-7.42-2.72,2.9-5.51,5.37-8.37,7.42-2.86,2.04-6.55,3.06-11.09,3.06Zm8.3-8.3c1.81,0,3.51-.43,5.1-1.29,1.59-.86,3.47-2.2,5.65-4.01v-22.86c-.91,.18-1.82,.36-2.72,.54-.91,.18-1.95,.36-3.13,.54-4.17,1.09-7.51,2.93-10,5.51-2.5,2.58-3.74,6.06-3.74,10.41,0,3.72,.86,6.51,2.58,8.37,1.72,1.86,3.81,2.79,6.26,2.79Z"/>
        <path class="cls-2" d="M173.46,241.12v-1.36l1.91-.54c1.72-.45,2.93-1.22,3.61-2.31s1.07-2.54,1.16-4.35v-42.59c0-1.99-.32-3.47-.95-4.42-.64-.95-1.86-1.61-3.67-1.97l-2.04-.54v-1.36l23.27-7.89,1.36,1.36,1.09,9.25c2.99-2.99,6.42-5.53,10.27-7.62,3.85-2.09,7.87-3.13,12.04-3.13s7.85,.88,10.48,2.65c2.63,1.77,4.63,4.51,5.99,8.23,3.54-3.35,7.37-6.01,11.5-7.96,4.13-1.95,8.14-2.93,12.04-2.93,6.44,0,11.18,1.54,14.22,4.63,3.04,3.09,4.56,7.94,4.56,14.56v39.87c0,3.54,1.63,5.76,4.9,6.67l1.5,.41v1.36h-31.43v-1.36l1.36-.41c1.72-.54,2.93-1.36,3.61-2.45s1.02-2.54,1.02-4.35v-41.64c0-3.81-.68-6.42-2.04-7.82s-3.54-2.11-6.53-2.11c-2.36,0-4.65,.52-6.87,1.56-2.22,1.04-4.56,2.61-7.01,4.69,.45,1.45,.75,3.04,.88,4.76s.2,3.54,.2,5.44v35.24c.09,3.54,1.72,5.76,4.9,6.67l1.22,.41v1.36h-31.57v-1.36l1.91-.54c1.72-.54,2.93-1.34,3.61-2.38,.68-1.04,1.02-2.47,1.02-4.29v-41.5c0-3.63-.66-6.21-1.97-7.76-1.32-1.54-3.56-2.31-6.74-2.31-2.09,0-4.17,.52-6.26,1.56-2.09,1.04-4.27,2.56-6.53,4.56v45.58c0,3.54,1.59,5.76,4.76,6.67l1.23,.41v1.36h-31.98Z"/>
        <path class="cls-2" d="M326.4,243.16c-6.89,0-12.88-1.43-17.96-4.29-5.08-2.86-9-6.92-11.77-12.18-2.77-5.26-4.15-11.43-4.15-18.51s1.47-13.2,4.42-18.37c2.95-5.17,6.98-9.16,12.11-11.97,5.12-2.81,10.91-4.22,17.35-4.22s12.2,1.38,17.28,4.15c5.08,2.77,9.09,6.74,12.04,11.91,2.95,5.17,4.42,11.34,4.42,18.5s-1.38,13.36-4.15,18.57c-2.77,5.22-6.67,9.25-11.7,12.11-5.03,2.86-11,4.29-17.89,4.29Zm0-2.72c3.17,0,5.71-.9,7.62-2.72,1.9-1.81,3.29-5.03,4.15-9.66,.86-4.63,1.29-11.16,1.29-19.59s-.43-15.1-1.29-19.73c-.86-4.63-2.25-7.85-4.15-9.66-1.91-1.81-4.45-2.72-7.62-2.72s-5.74,.91-7.69,2.72c-1.95,1.82-3.36,5.04-4.22,9.66-.86,4.63-1.29,11.2-1.29,19.73s.43,14.97,1.29,19.59c.86,4.63,2.27,7.85,4.22,9.66,1.95,1.82,4.51,2.72,7.69,2.72Z"/>
        <path class="cls-2" d="M395.8,241.53l-24.08-57.83c-1.27-3.08-3.45-5.12-6.53-6.12l-1.9-.54v-1.36h35.24v1.36l-2.45,.54c-3.54,.91-4.63,3.27-3.27,7.08l14.29,37.96,13.33-37.69c.72-1.81,.91-3.31,.54-4.49-.36-1.18-1.45-2.04-3.27-2.58l-3.4-.82v-1.36h19.73v1.36l-3.95,.95c-1.72,.45-3.06,1.14-4.01,2.04-.95,.91-1.75,2.27-2.38,4.08l-20,57.42h-7.89Z"/>
        <path class="cls-2" d="M468.05,173.63c5.9,0,10.93,1.2,15.1,3.61,4.17,2.4,7.37,5.67,9.59,9.8,2.22,4.13,3.33,8.82,3.33,14.08,0,1-.05,2.02-.14,3.06-.09,1.04-.27,1.97-.54,2.79h-40.55c.09,9.8,1.84,16.85,5.24,21.16,3.4,4.31,8.46,6.46,15.17,6.46,4.53,0,8.21-.72,11.02-2.18,2.81-1.45,5.44-3.58,7.89-6.4l1.36,1.22c-2.81,4.99-6.55,8.89-11.23,11.7-4.67,2.81-10.27,4.22-16.8,4.22s-12.16-1.38-17.14-4.15c-4.99-2.77-8.89-6.73-11.7-11.9-2.81-5.17-4.22-11.34-4.22-18.51s1.63-13.76,4.9-18.98c3.27-5.21,7.46-9.19,12.59-11.91,5.12-2.72,10.5-4.08,16.12-4.08Zm-.41,2.72c-2.63,0-4.88,.8-6.74,2.38-1.86,1.59-3.31,4.4-4.35,8.44-1.04,4.04-1.61,9.73-1.7,17.08h23.27c.91-9.89,.54-17.01-1.09-21.36-1.63-4.35-4.76-6.53-9.39-6.53Z"/>
        <path class="cls-2" d="M526.42,243.16c-4.45,0-8.44-.52-11.97-1.56-3.54-1.04-6.8-2.33-9.8-3.88l.14-16.19h1.36l4.63,8.17c1.99,3.63,4.19,6.33,6.6,8.1,2.4,1.77,5.46,2.65,9.19,2.65,4.35,0,7.87-.97,10.55-2.93,2.67-1.95,4.01-4.56,4.01-7.82,0-2.99-.95-5.44-2.86-7.35s-5.44-3.63-10.61-5.17l-5.71-1.77c-5.53-1.63-9.89-4.17-13.06-7.62-3.18-3.45-4.76-7.66-4.76-12.66,0-5.99,2.36-11.07,7.08-15.24,4.72-4.17,11.47-6.26,20.27-6.26,3.54,0,6.87,.39,10,1.16,3.13,.77,6.14,1.93,9.05,3.47l-.82,14.7h-1.36l-4.76-8.44c-1.72-2.99-3.43-5.1-5.1-6.33-1.68-1.22-4.2-1.84-7.55-1.84-3.08,0-5.99,.86-8.71,2.58-2.72,1.72-4.08,4.17-4.08,7.35s1.16,5.53,3.47,7.35c2.31,1.82,5.74,3.49,10.27,5.04l6.12,1.77c6.53,2,11.2,4.74,14.02,8.23,2.81,3.49,4.22,7.69,4.22,12.59,0,6.62-2.61,11.93-7.82,15.92-5.22,3.99-12.54,5.99-21.98,5.99Z"/>
        <path class="cls-2" d="M577.99,243.16c-3.27,0-6.03-1.14-8.3-3.4-2.27-2.27-3.4-4.99-3.4-8.16s1.13-5.94,3.4-8.3c2.27-2.36,5.04-3.54,8.3-3.54s6.03,1.18,8.3,3.54c2.27,2.36,3.4,5.13,3.4,8.3s-1.14,5.9-3.4,8.16c-2.27,2.27-5.03,3.4-8.3,3.4Z"/>
      </g>
      <g>
        <path class="cls-2" d="M196.78,290.81c0,1.38-.36,2.56-1.07,3.55-.71,.99-1.67,1.75-2.88,2.28-1.21,.53-2.54,.8-3.98,.8h-12.28v-25.72h13.26c1.21,0,2.25,.32,3.13,.96,.88,.64,1.56,1.46,2.03,2.46s.71,2.05,.71,3.13c0,1.26-.32,2.43-.96,3.53-.64,1.1-1.55,1.91-2.74,2.44,1.47,.44,2.64,1.23,3.5,2.37s1.29,2.54,1.29,4.18Zm-16.16-15.58v7.57h7.46c.68,0,1.28-.16,1.81-.49,.53-.33,.95-.77,1.27-1.34,.31-.57,.47-1.21,.47-1.94s-.15-1.41-.43-1.97c-.29-.57-.68-1.01-1.18-1.34-.5-.33-1.07-.49-1.72-.49h-7.68Zm11.99,14.82c0-.72-.15-1.38-.45-1.98-.3-.59-.71-1.07-1.23-1.45-.52-.37-1.13-.56-1.83-.56h-8.48v7.86h8.22c.72,0,1.37-.17,1.94-.53,.57-.35,1.01-.82,1.34-1.41,.33-.59,.49-1.24,.49-1.94Z"/>
        <path class="cls-2" d="M212.65,271.72l7.1,12.79,7.17-12.79h4.45l-9.6,16.52v9.2h-4.06v-9.27l-9.53-16.45h4.46Z"/>
        <path class="cls-2" d="M263.91,297.44v-25.72h4.06v22.13h13.8v3.59h-17.86Z"/>
        <path class="cls-2" d="M305.85,297.62c-2.05,0-3.79-.35-5.2-1.05s-2.55-1.65-3.41-2.86c-.86-1.21-1.48-2.58-1.88-4.13-.4-1.55-.6-3.15-.6-4.82v-13.04h4.06v13.04c0,1.18,.12,2.32,.36,3.42s.63,2.08,1.16,2.95c.53,.87,1.25,1.56,2.15,2.06,.91,.51,2.02,.76,3.35,.76s2.48-.26,3.39-.78c.91-.52,1.62-1.22,2.14-2.1,.52-.88,.9-1.87,1.14-2.95s.36-2.21,.36-3.37v-13.04h4.09v13.04c0,1.76-.21,3.42-.63,4.98-.42,1.56-1.07,2.92-1.96,4.09-.88,1.17-2.02,2.09-3.42,2.77-1.4,.68-3.1,1.01-5.11,1.01Z"/>
        <path class="cls-2" d="M337.29,279.26v18.18h-4.06v-25.72h3.33l14.56,18.58v-18.55h4.09v25.68h-3.55l-14.38-18.18Z"/>
        <path class="cls-2" d="M379.31,271.72h3.84l10,25.72h-4.27l-2.51-6.99h-10.28l-2.52,6.99h-4.31l10.07-25.72Zm5.97,15.72l-4.05-11.27-4.07,11.27h8.12Z"/>
        <path class="cls-2" d="M441.11,277.77c-.24-.27-.59-.55-1.05-.85s-1-.59-1.63-.85c-.63-.27-1.3-.48-2.03-.65-.72-.17-1.47-.25-2.25-.25-1.69,0-2.95,.31-3.77,.94-.82,.63-1.23,1.49-1.23,2.6,0,.82,.23,1.46,.69,1.93s1.16,.86,2.1,1.17c.94,.31,2.13,.65,3.55,1.01,1.74,.41,3.25,.9,4.53,1.46s2.26,1.32,2.93,2.26c.68,.94,1.01,2.18,1.01,3.72,0,1.3-.24,2.42-.72,3.36-.48,.94-1.16,1.7-2.03,2.29-.87,.59-1.87,1.02-3.01,1.3-1.14,.28-2.35,.41-3.66,.41s-2.55-.13-3.82-.4c-1.27-.27-2.48-.66-3.62-1.18-1.15-.52-2.2-1.15-3.17-1.9l1.85-3.48c.31,.31,.77,.66,1.36,1.03,.59,.37,1.28,.73,2.06,1.07s1.64,.62,2.57,.85,1.88,.34,2.84,.34c1.62,0,2.86-.28,3.71-.85s1.29-1.38,1.29-2.43c0-.87-.28-1.56-.83-2.08-.56-.52-1.37-.96-2.43-1.32-1.06-.36-2.33-.72-3.8-1.08-1.69-.46-3.1-.96-4.24-1.5-1.14-.54-1.99-1.24-2.55-2.09s-.85-1.95-.85-3.27c0-1.69,.41-3.11,1.23-4.28s1.94-2.05,3.35-2.64c1.41-.59,3-.89,4.76-.89,1.16,0,2.26,.13,3.3,.38,1.04,.25,2.01,.6,2.92,1.03,.91,.43,1.73,.93,2.48,1.48l-1.85,3.33Z"/>
        <path class="cls-2" d="M480.01,271.72v25.72h-4.09v-11.34h-12.97v11.34h-4.06v-25.72h4.06v10.76h12.97v-10.76h4.09Z"/>
        <path class="cls-2" d="M496.67,297.44v-25.72h11.19c1.16,0,2.22,.24,3.19,.72,.97,.48,1.8,1.12,2.52,1.92,.71,.8,1.27,1.69,1.67,2.68,.4,.99,.6,2,.6,3.04,0,1.13-.21,2.22-.62,3.26-.41,1.04-1,1.93-1.76,2.68-.76,.75-1.65,1.29-2.66,1.63l6.05,9.78h-4.56l-5.58-8.95h-5.98v8.95h-4.06Zm4.06-12.53h7.1c.75,0,1.41-.22,1.99-.65,.58-.43,1.04-1.02,1.38-1.76,.34-.74,.51-1.54,.51-2.41s-.19-1.7-.58-2.41c-.39-.71-.89-1.29-1.5-1.72-.62-.43-1.29-.65-2.01-.65h-6.88v9.6Z"/>
        <path class="cls-2" d="M549.12,293.86v3.59h-17.64v-25.72h17.31v3.59h-13.26v7.32h11.48v3.37h-11.48v7.86h13.58Z"/>
        <path class="cls-2" d="M581.83,293.86v3.59h-17.64v-25.72h17.31v3.59h-13.26v7.32h11.48v3.37h-11.48v7.86h13.58Z"/>
      </g>
      <g>
        <path class="cls-1" d="M55.28,6.79c10.58-2.26,21.15-4.52,31.73-6.79,33.76,22.38,46.68,65.34,31.64,100.75-16.45,38.72-62.39,59.12-104.35,44.28,0,0,4.41-30.9,21.86-48.34,14.33-1.69,21.64-1.83,21.95-.44,.05,.22-.08,.47-.37,.77-6.91,3.25-13.83,6.51-20.74,9.76l-1.26,24.8s71.88-.42,71.88-84.07c-.81-19.92-6.88-28.86-13.13-33.15-13.72-9.42-39.11-3.85-39.43-6.96-.03-.25,.12-.47,.23-.61Z"/>
        <circle class="cls-1" cx="73.11" cy="74.45" r="19.6"/>
        <path class="cls-1" d="M48.89,222.8c-.61,5.79-.95,12.08-.95,18.91,0,2.06,.05,4.09,.16,6.07-3.55-1.84-7.26-3.86-11.11-6.07L0,235.83l41.2-20.6c2.52,2.76,5.1,5.29,7.7,7.58Z"/>
        <path class="cls-1" d="M90.93,262.85c-.61-8.76-.92-18.52-.75-29.28,.22-13.28,1.17-28.07,3.2-44.33-9.73-2.94-17.78-9.71-22.42-18.57-4.76,5.67-16.02,22.26-18.97,54.75-.46,5.05-.71,10.47-.71,16.3,0,2.68,.09,5.28,.27,7.82,3.36,48.59,37.15,72.88,37.15,72.88l-1.69,17.23,19.34,2.1-5.05-23.54s-7.82-18.89-10.38-55.37Z"/>
        <path class="cls-1" d="M104.27,190.84c-.47,0-.94-.02-1.41-.04,0,6.32-.72,14.27-3.39,23.02-1.7,5.58-3.36,11-5.83,15.24-.36,12.9-.03,24.28,.67,34.07,53.21,3.09,32.69-76.09,31.83-79.32-6.16,4.42-13.71,7.02-21.87,7.02Z"/>
      </g>
    </g>
  </g>
</svg>